<svg id="Logo" xmlns="http://www.w3.org/2000/svg" viewBox="0 0 303.07 171.35" class="svelte-md2ju7"><defs><style>.cls-1 {
          fill: #fff;
        }</style></defs><g><path class="cls-1" d="M19.65,43.55c-.07-20.27,12.88-31.5,36.68-31.58,17.14-.06,20.19,11.15,20.21,15.22,.03,7.8-11.03,16.08-11.03,16.08,0,0,.61,4.85,10.08,4.82,9.47-.03,18.7-6.29,18.64-21.94C94.16,8.15,75.33-.07,56.72,0,41.15,.06-.15,2.25,0,43.26c.13,36.43,68.82,39.64,68.91,62.97,.09,25.33-28.34,32.15-37.91,32.19-9.58,.03-13.52-6.84-13.53-10.61-.07-20.51,20.33-26.23,20.33-26.23,0-1.51-1.2-8.35-9.1-8.32C8.34,93.32,.23,110.84,.29,127.94c.05,14.54,10.33,23.62,25.85,23.57,29.67-.11,63.13-14.59,63.01-46.76-.11-30.08-69.41-37.94-69.5-61.2Z"></path><path class="cls-1" d="M302.5,124.14c-.24-.57-.9-.43-1.78,.29-3.37,2.78-11.07,10.65-29.09,10.72-32.84,.12-38.53-54.02-38.53-54.02,0,0,25.02-18.7,28.93-26.23,3.91-7.54-8.53-9.21-8.53-9.21,0,0-17.51,21.31-29.91,27.57,1.33-9.26,10.5-30.39,11.06-42.54,.56-12.15-14.62-9.19-17.04-8.02,.02,5.3-13.38,53.46-18.26,79.93-2.87,4.58-6.97,9.84-10.64,9.86-2.13,0-2.91-3.94-2.93-9.6-.03-7.84,4.31-20.4,4.28-28.03-.02-5.28-2.43-5.6-4.51-5.59-.46,0-2.97,.07-3.42,.07-5.35,.02-3.6-4.57-8.4-4.55-14.76,.05-33.55,16.16-34.36,40.49-4.98,3.3-11.95,7.45-15.51,7.47-3.73,.01-4.66-3.45-4.67-6.44-.02-5.24,8.48-36.39,8.48-36.39,0,0,10.79-2.77,15.51-3.69,3.57-.69,4.56-.95,5.97-2.68,1.41-1.72,4.09-5.28,6.28-8.48,2.19-3.2,.04-5.67-4.01-5.65-5.31,.02-19.52,3.37-19.52,3.37,0,0,6.82-29.44,6.82-30.04,0-.62-.8-.91-1.92-.9-2.59,0-7.2,1.4-10.16,2.45-4.52,1.61-8.2,7.16-8.94,9.74-.74,2.58-5.85,22.78-5.85,22.78,0,0-27.37,9.45-31.11,10.87-.25,.09-.39,.31-.39,.54,0,.24,3.14,12.22,9.55,12.2,4.62-.02,18.08-5.53,18.08-5.53,0,0-6.93,27.59-6.89,36.75,.02,5.9,2.78,12.8,14.29,12.76,10.73-.04,20.08-5.53,25.33-9.38,2.87,7.26,9.65,9.26,14.28,9.24,10.38-.04,18.39-8.28,19.39-9.39,1.35,3.18,4.52,9.3,11.77,9.27,4.1-.01,8.35-4.63,11.48-9.05-.05,1.11-.04,2.04,.04,2.78,1.25,11.42,18.21,4.71,19.11,3.11,.57-8.26,.21-25.15,3.51-35.57,4.37,35.56,20.98,59.49,50.82,59.38,16.69-.06,25.23-4.86,28.79-8.82,4.11-4.56,3.28-10.16,2.59-11.83Zm-143.2-11.72c-14.33,.05,4.38-37.11,16.61-37.16,.02,4.79-.25,37.1-16.61,37.16Z"></path><path class="cls-1" d="M275.64,123.81c12.94-.05,22.96-8.57,24.79-11.34,2.37-3.61-2.75-9.05-4.38-8.95-4.08,3.91-8.35,8.64-17.94,8.67-11.29,.04-8.73-12.38-8.73-12.38,0,0,21.72,2.81,30.45-12.81,2.79-5,2.91-11.91,1.78-14.89-1.15-3.03-7.44-8.49-17.49-7.64-12.35,1.04-27.91,13.92-31.33,29.39-2.75,12.43,2.45,30.02,22.86,29.95Zm13.8-52.13c2.03-.07,1.85,3.28,1.3,6.79-.74,4.75-7.29,16.82-19.74,16.36,.84-7.04,10.11-22.86,18.44-23.15Z"></path></g><g><path class="cls-1" d="M129.13,162.56c2.39,0,4.4,2.01,4.4,4.4s-2.01,4.4-4.4,4.4-4.4-2.01-4.4-4.4,2.01-4.4,4.4-4.4Z"></path><path class="cls-1" d="M136.89,139.59h8.18v18.29c0,3.69,1.96,6.36,6.31,6.36s6.27-2.67,6.27-6.36v-18.29h8.18v18.52c0,7.76-4.44,13.24-14.45,13.24s-14.5-5.52-14.5-13.19v-18.57Z"></path><path class="cls-1" d="M173.47,160.36c2.24,2.24,5.71,4.12,9.96,4.12,2.76,0,4.44-1.17,4.44-2.67,0-1.78-2.01-2.48-5.33-3.18-5.14-1.03-12.35-2.34-12.35-9.73,0-5.24,4.44-9.77,12.44-9.77,5,0,9.35,1.5,12.67,4.35l-4.4,5.75c-2.62-2.15-6.03-3.23-8.79-3.23s-3.69,1.08-3.69,2.43c0,1.64,1.92,2.2,5.38,2.85,5.14,1.08,12.25,2.57,12.25,9.63,0,6.27-4.63,10.43-13,10.43-6.31,0-10.71-1.96-13.84-4.96l4.26-6.03Z"></path></g></svg>
