<svg width="50" height="39" viewBox="0 0 50 39" fill="none" xmlns="http://www.w3.org/2000/svg">
<path d="M42.3547 3.19054C39.0756 1.68047 35.6066 0.607504 32.0394 0C31.5951 0.790667 31.076 1.85412 30.7179 2.70015C26.8719 2.13094 23.0611 2.13094 19.2857 2.70015C18.9279 1.85431 18.3971 0.790667 17.9486 0C14.3779 0.607784 10.906 1.68349 7.62537 3.19842C1.09725 12.9081 -0.672474 22.3763 0.212291 31.7105C4.54217 34.893 8.73826 36.8263 12.8637 38.0914C13.8889 36.7037 14.7952 35.2345 15.5732 33.699C14.092 33.144 12.6641 32.46 11.3064 31.6551C11.6637 31.3945 12.0126 31.1229 12.3525 30.8406C20.5795 34.6281 29.5185 34.6281 37.6474 30.8406C37.9889 31.121 38.3376 31.3926 38.6933 31.6551C37.3335 32.4621 35.9029 33.1475 34.4187 33.703C35.2011 35.2448 36.1058 36.7154 37.1283 38.0952C41.2576 36.8303 45.4576 34.897 49.7875 31.7105C50.8257 20.8899 48.014 11.5084 42.3547 3.19035V3.19054ZM16.6941 25.9701C14.2244 25.9701 12.199 23.7008 12.199 20.9374C12.199 18.174 14.1812 15.9008 16.6941 15.9008C19.2072 15.9008 21.2324 18.17 21.1892 20.9374C21.1931 23.7008 19.2072 25.9701 16.6941 25.9701ZM33.3056 25.9701C30.8359 25.9701 28.8107 23.7008 28.8107 20.9374C28.8107 18.174 30.7927 15.9008 33.3056 15.9008C35.8187 15.9008 37.8439 18.17 37.8008 20.9374C37.8008 23.7008 35.8187 25.9701 33.3056 25.9701Z" fill="white"/>
</svg>
