<svg width="14" height="15" viewBox="0 0 14 15" fill="none" xmlns="http://www.w3.org/2000/svg">
<path d="M5.86108 1.25036C5.76597 1.24842 5.67186 1.2701 5.58718 1.31344C5.50251 1.35679 5.4299 1.42046 5.37586 1.49874C5.32182 1.57703 5.28803 1.6675 5.27752 1.76204C5.26701 1.85659 5.28012 1.95226 5.31565 2.0405L5.81198 3.28172L5.0042 2.77618C4.8747 2.69531 4.71837 2.66919 4.56962 2.70357C4.42086 2.73796 4.29186 2.83002 4.21099 2.95952C4.13011 3.08902 4.10399 3.24534 4.13838 3.3941C4.17276 3.54285 4.26483 3.67186 4.39433 3.75273L4.99499 4.12786H1.82215C1.4408 4.12826 1.07518 4.27994 0.805524 4.54959C0.535867 4.81925 0.384195 5.18487 0.383789 5.56622V6.14157C0.383789 6.93477 1.02894 7.57993 1.82215 7.57993H12.1784C12.5597 7.57952 12.9253 7.42785 13.195 7.15819C13.4647 6.88854 13.6163 6.52292 13.6167 6.14157V5.56622C13.6163 5.18487 13.4647 4.81925 13.195 4.54959C12.9253 4.27994 12.5597 4.12826 12.1784 4.12786H9.00553L9.60619 3.75196C9.67373 3.71369 9.73282 3.66215 9.77992 3.60043C9.82701 3.53872 9.86113 3.46812 9.88021 3.39287C9.8993 3.31762 9.90296 3.23929 9.89098 3.16259C9.879 3.0859 9.85161 3.01242 9.81049 2.94658C9.76936 2.88074 9.71533 2.82391 9.65166 2.7795C9.58798 2.73509 9.51598 2.70403 9.43999 2.68818C9.36399 2.67233 9.28558 2.67203 9.20947 2.68728C9.13335 2.70254 9.06111 2.73304 8.99709 2.77695L8.18777 3.28325L8.68487 2.0405C8.74163 1.8988 8.73978 1.74035 8.67972 1.60001C8.61965 1.45967 8.5063 1.34894 8.36459 1.29217C8.22289 1.23541 8.06444 1.23726 7.9241 1.29733C7.78376 1.35739 7.67303 1.47074 7.61626 1.61245L7.00026 3.15361L6.38349 1.61168C6.34149 1.50682 6.26956 1.41665 6.17666 1.3524C6.08376 1.28814 5.97401 1.25266 5.86108 1.25036ZM1.24681 8.72985V12.1819C1.24681 13.4515 2.27936 14.4833 3.54819 14.4833H6.42491V8.72985H1.24681ZM7.5756 8.72985V14.4833H10.4523C11.7212 14.4833 12.7537 13.4515 12.7537 12.1819V8.72985H7.5756Z" fill="#DDB440"/>
<path d="M5.86108 1.25036C5.76597 1.24842 5.67186 1.2701 5.58718 1.31344C5.50251 1.35679 5.4299 1.42046 5.37586 1.49874C5.32182 1.57703 5.28803 1.6675 5.27752 1.76204C5.26701 1.85659 5.28012 1.95226 5.31565 2.0405L5.81198 3.28172L5.0042 2.77618C4.8747 2.69531 4.71837 2.66919 4.56962 2.70357C4.42086 2.73796 4.29186 2.83002 4.21099 2.95952C4.13011 3.08902 4.10399 3.24534 4.13838 3.3941C4.17276 3.54285 4.26483 3.67186 4.39433 3.75273L4.99499 4.12786H1.82215C1.4408 4.12826 1.07518 4.27994 0.805524 4.54959C0.535867 4.81925 0.384195 5.18487 0.383789 5.56622V6.14157C0.383789 6.93477 1.02894 7.57993 1.82215 7.57993H12.1784C12.5597 7.57952 12.9253 7.42785 13.195 7.15819C13.4647 6.88854 13.6163 6.52292 13.6167 6.14157V5.56622C13.6163 5.18487 13.4647 4.81925 13.195 4.54959C12.9253 4.27994 12.5597 4.12826 12.1784 4.12786H9.00553L9.60619 3.75196C9.67373 3.71369 9.73282 3.66215 9.77992 3.60043C9.82701 3.53872 9.86113 3.46812 9.88021 3.39287C9.8993 3.31762 9.90296 3.23929 9.89098 3.16259C9.879 3.0859 9.85161 3.01242 9.81049 2.94658C9.76936 2.88074 9.71533 2.82391 9.65166 2.7795C9.58798 2.73509 9.51598 2.70403 9.43999 2.68818C9.36399 2.67233 9.28558 2.67203 9.20947 2.68728C9.13335 2.70254 9.06111 2.73304 8.99709 2.77695L8.18777 3.28325L8.68487 2.0405C8.74163 1.8988 8.73978 1.74035 8.67972 1.60001C8.61965 1.45967 8.5063 1.34894 8.36459 1.29217C8.22289 1.23541 8.06444 1.23726 7.9241 1.29733C7.78376 1.35739 7.67303 1.47074 7.61626 1.61245L7.00026 3.15361L6.38349 1.61168C6.34149 1.50682 6.26956 1.41665 6.17666 1.3524C6.08376 1.28814 5.97401 1.25266 5.86108 1.25036ZM1.24681 8.72985V12.1819C1.24681 13.4515 2.27936 14.4833 3.54819 14.4833H6.42491V8.72985H1.24681ZM7.5756 8.72985V14.4833H10.4523C11.7212 14.4833 12.7537 13.4515 12.7537 12.1819V8.72985H7.5756Z" fill="url(#paint0_linear_2973_2829)"/>
<defs>
<linearGradient id="paint0_linear_2973_2829" x1="0.383789" y1="2.365" x2="13.5515" y2="14.2777" gradientUnits="userSpaceOnUse">
<stop stop-color="#FFDB00"/>
<stop offset="0.474" stop-color="#FFDB00" stop-opacity="0"/>
</linearGradient>
</defs>
</svg>
