<svg width="16" height="15" viewBox="0 0 16 15" fill="none" xmlns="http://www.w3.org/2000/svg">
<path d="M9.14803 14.6522L10.0849 14.3801C10.2065 14.3452 10.3199 14.2851 10.4183 14.2035C10.5166 14.1219 10.5977 14.0204 10.6567 13.9054C10.7157 13.7904 10.7513 13.6641 10.7613 13.5344C10.7714 13.4047 10.7557 13.2743 10.7152 13.151C10.6215 12.8614 10.5278 12.5717 10.4256 12.2732C10.9083 12.3268 11.3963 12.2525 11.8435 12.0574C12.2906 11.8623 12.682 11.5528 12.9807 11.1583C13.3566 10.6961 13.7667 10.2647 14.2071 9.86777C14.6581 9.38575 14.9553 8.77314 15.0588 8.11206C15.0833 8.01417 15.0829 7.91147 15.0577 7.8138C15.0324 7.71614 14.9832 7.6268 14.9147 7.55444C14.8463 7.48214 14.7609 7.42917 14.6668 7.40074C14.5726 7.37231 14.473 7.36941 14.3775 7.3922C14.2077 7.41153 14.0363 7.41153 13.8665 7.3922C13.1486 7.32658 12.4417 7.16729 11.7628 6.91817C11.6299 6.86909 11.5162 6.77658 11.4391 6.65481C11.4391 6.6197 11.4391 6.6197 11.4391 6.58459C11.1736 5.89135 10.6577 5.33119 9.9997 5.02195C9.76125 4.86394 9.65906 4.76737 9.67606 4.47768C9.6801 4.42216 9.6801 4.3664 9.67606 4.31088C9.68031 4.25537 9.68031 4.1996 9.67606 4.14408C9.67606 4.14408 9.67606 4.08263 9.67606 4.04752V3.56469C9.67675 2.98745 9.55155 2.41743 9.30985 1.89674L9.20766 1.7036V1.65093C9.21069 1.62763 9.21069 1.60401 9.20766 1.5807L9.13948 1.4578V1.39635L8.93509 1.24711L8.87546 1.1681L8.82439 1.09788L8.7307 1.01009L8.65402 0.939857L8.55182 0.869626H8.43257C8.3958 0.865561 8.35865 0.865561 8.32188 0.869626H8.19412C7.87898 0.869626 7.51272 1.54558 7.3424 1.9933C7.3424 2.04597 7.3424 2.09865 7.28277 2.1601C7.28644 2.20684 7.28644 2.25381 7.28277 2.30056C7.19764 2.58147 7.11245 2.8624 7.04432 3.17843V3.24866L6.97619 3.50324C6.97911 3.56173 6.97911 3.62033 6.97619 3.67881C6.97619 3.77538 6.97619 3.86317 6.91657 3.95095C6.91657 4.03874 6.91657 4.11775 6.85694 4.20553C6.79731 4.29332 6.78881 4.55668 6.74619 4.74104V5.03073H6.46517L6.30335 4.95172H6.1841L6.07335 4.89028H6.03078L5.89452 4.81127L5.76677 4.74982L5.63046 4.67958L5.00023 4.75859L4.60843 4.60058H4.54881L4.42957 4.55668H3.57786C3.32743 4.50222 3.07442 4.4612 2.81985 4.43378H1.46564C1.15902 4.43378 0.852407 4.43378 0.53728 4.43378C0.0177379 4.47768 -0.0929799 4.72348 0.0688438 5.2502L0.119944 5.3731V5.59257L0.171046 5.69792V5.80326L0.222153 5.89108L0.27325 5.97006V6.0227L0.324353 6.09298L0.37546 6.14562V6.18955L0.418038 6.23342C0.43912 6.24624 0.4567 6.26437 0.46914 6.28612L0.520248 6.33876L0.596896 6.40021C1.08501 6.83431 1.6705 7.13607 2.3003 7.2781C2.72616 7.38343 3.15202 7.46242 3.62045 7.54146L4.04631 7.62045C3.96965 8.00672 3.893 8.35789 3.82486 8.71776C3.73142 9.01919 3.70258 9.33788 3.74032 9.65191C3.77805 9.96588 3.88149 10.2677 4.04345 10.5365C4.20542 10.8053 4.42207 11.0346 4.67843 11.2086C4.93476 11.3827 5.22476 11.4973 5.52826 11.5446C5.95048 11.6103 6.3465 11.7964 6.67152 12.0819C6.9966 12.3672 7.23781 12.7406 7.36796 13.1598L7.63197 14.0377C7.65541 14.2066 7.72189 14.366 7.82456 14.4999C7.92724 14.6337 8.06248 14.7372 8.21655 14.7996C8.37061 14.862 8.53795 14.8813 8.70158 14.8554C8.86521 14.8295 9.01922 14.7594 9.14803 14.6522Z" fill="#DDB440"/>
</svg>
